<?xml version="1.0" encoding="utf-8"?>
<!-- Generator: Adobe Illustrator 26.0.1, SVG Export Plug-In . SVG Version: 6.00 Build 0)  -->
<svg version="1.1" id="Layer_1" xmlns="http://www.w3.org/2000/svg" xmlns:xlink="http://www.w3.org/1999/xlink" x="0px" y="0px"
	 viewBox="0 0 448 448" style="enable-background:new 0 0 448 448;" xml:space="preserve">
<style type="text/css">
	.st0{fill:#D03400;}
	.st1{fill:#0F8B00;}
</style>
<path class="st0" d="M440.9,168H420c-12.7,0-24.6-4.4-34.2-11.7c-15.4,7.7-32.4,11.7-49.8,11.7h-28v-60.8
	c-32.6-11.6-56-42.7-56-79.2V1.8C242.8,0.7,233.5,0,224,0C100.3,0,0,100.3,0,224s100.3,224,224,224s224-100.3,224-224
	C448,204.7,445.5,185.9,440.9,168L440.9,168z M84,224H56c0-77.2,52.3-144.2,127.2-163l6.8,27.2C127.6,103.8,84,159.7,84,224L84,224z
	"/>
<path class="st1" d="M420,84V56l28-28L420,0l-28,28h-56c-15.5,0-28-12.5-28-28h-28v28c0,30.9,25.1,56,56,56v56
	c21.9,0,41.7-8.4,56.6-22.1c2.7,12.6,13.9,22.1,27.4,22.1h28v-28C432.5,112,420,99.5,420,84z"/>
</svg>
